<?xml version="1.0" encoding="UTF-8" standalone="no"?>
<!-- Created with Inkscape (http://www.inkscape.org/) -->

<svg
   width="468.0527mm"
   height="516.63202mm"
   viewBox="0 0 468.0527 516.63202"
   version="1.1"
   id="svg5"
   xml:space="preserve"
   inkscape:export-filename="bitmap.svg"
   inkscape:export-xdpi="96"
   inkscape:export-ydpi="96"
   inkscape:version="1.2 (1:1.2.1+202207142221+cd75a1ee6d)"
   sodipodi:docname="Yellow-jack-100.svg"
   xmlns:inkscape="http://www.inkscape.org/namespaces/inkscape"
   xmlns:sodipodi="http://sodipodi.sourceforge.net/DTD/sodipodi-0.dtd"
   xmlns="http://www.w3.org/2000/svg"
   xmlns:svg="http://www.w3.org/2000/svg"><sodipodi:namedview
     id="namedview7"
     pagecolor="#ffffff"
     bordercolor="#000000"
     borderopacity="0.25"
     inkscape:showpageshadow="2"
     inkscape:pageopacity="0.0"
     inkscape:pagecheckerboard="0"
     inkscape:deskcolor="#d1d1d1"
     inkscape:document-units="mm"
     showgrid="false"
     inkscape:zoom="0.5"
     inkscape:cx="1873"
     inkscape:cy="955"
     inkscape:window-width="2560"
     inkscape:window-height="1016"
     inkscape:window-x="462"
     inkscape:window-y="795"
     inkscape:window-maximized="1"
     inkscape:current-layer="layer1" /><defs
     id="defs2" /><g
     inkscape:label="Layer 1"
     inkscape:groupmode="layer"
     id="layer1"
     transform="translate(154.8532,107.54718)"><path
       style="fill:#000000;stroke-width:3.85741"
       d="m 43.792219,407.16719 c 0,-1.05478 7.51131,-12.11906 16.68948,-24.58688 24.76121,-33.63572 28.36808,-44.26148 20.57322,-60.60764 -13.85969,-29.06369 -11.61146,-61.62662 5.31085,-76.94192 8.6754,-7.84957 10.52613,-34.19604 2.74797,-39.08568 -2.65124,-1.66697 -21.31006,-5.05195 -41.46304,-7.52198 -32.30815,-3.95911 -37.21173,-3.76892 -41.4628397,1.61225 -6.62666996,8.38885 -6.04031996,16.17334 1.87711,24.922 6.3773597,7.04635 6.3358597,7.66728 -0.85118,12.92362 -4.15442,3.03718 -7.60244996,9.00438 -7.66378996,13.2611 -0.1017,7.18324 -4.70296004,10.99549 -28.45382034,23.58665 -14.10804,7.47902 -35.61121,-5.60889 -42.64643,-25.95595 -7.28916,-21.08214 -3.49369,-33.49612 12.94569,-42.34945 26.9887,-14.53402 18.23677,-26.36554 -11.19049,-15.12806 -14.74692,5.6321 -19.21585,5.90006 -29.23167,1.75118 -11.356499,-4.704 -23.220929,-21.09645 -22.856559,-31.583 0.0945,-2.75639 2.55794,0.19379 5.47188,6.55911 2.91368,6.36359 5.57547,8.96732 5.91621,5.7855 0.34137,-3.18268 2.3008,-1.19319 4.35981,4.42052 5.39076,14.71448 17.473069,16.31606 40.004899,5.30243 20.88153,-10.20676 86.31194,-62.52228 102.99912,-82.3548 14.91286,-17.724085 68.237871,-59.209785 72.622561,-56.499065 7.79813,4.81951 3.17009,17.83564 -11.587421,32.5931 -16.74555,16.74548 -61.82395,41.709975 -61.82395,34.237625 0,-2.50505 -1.01252,-3.54308 -2.24993,-2.30521 -1.23766,1.23762 -2.03813,3.35344 -1.77942,4.70246 0.25803,1.349 -9.57678,10.06772 -21.85641,19.37482 -12.2793697,9.30832 -30.13747,24.1011 -39.68309,32.87257 l -17.35679,15.94853 22.21167,-2.25568 c 12.21627,-1.24071 33.9124003,-6.08198 48.21215,-10.75727 22.77253,-7.44614 30.33233,-12.68445 60.87533,-42.18016 19.181561,-18.52275 39.575211,-35.465425 45.320421,-37.649315 9.62869,-3.6605 10.44507,-5.65112 10.44507,-25.43425 0,-34.44338 -19.67901,-64.6250701 -45.504531,-69.7902701 -11.99099,-2.39819 -12.28421,-2.13993 -10.08179,8.87395 3.45184,17.2591601 -5.35421,43.6185401 -19.19868,57.4634801 -40.60005,40.598645 -109.55124,14.01842 -95.02455,-36.63221 5.38,-18.7610801 -2.04263,-14.8502201 -34.22173,18.02845 -18.91941,19.33199 -33.71848,38.82331 -41.727549,54.96176 -6.82711,13.755295 -12.46777,22.097305 -12.53607,18.539205 -0.0652,-3.55771 5.94876,-18.125595 13.37533,-32.368375 7.424389,-14.24495 13.498819,-31.35948 13.498819,-38.03364 0,-15.74176 14.57766,-44.0768901 27.52346,-53.5009601 5.59055,-4.0696199 18.19653,-8.3048999 28.01266,-9.4115799 15.49811,-1.74625 17.20723,-2.793271 12.9773,-7.940227 -9.31009,-11.330336 -52.44868,-27.494615 -90.262209,-33.823489 -43.59528,-7.293799 -55.03248,-13.23094 -25.49105,-13.23094 28.63893,0 81.531519,18.932124 112.452919,40.25099 l 25.86373034,17.833706 14.12126966,-5.900509 c 7.76718,-3.245206 18.86963,-5.900035 24.67123,-5.900035 h 10.54898 l -14.82043,-15.178263 c -17.09625,-17.508029 -44.76064,-32.986571 -89.91975,-50.314206 -17.50116,-6.714859 -31.82045,-13.147342 -31.82045,-14.294752 0,-3.50085 34.12287,2.79442 49.12766,9.063294 23.63248,9.874788 52.54958,30.086224 73.51486,51.384613 21.66709,22.011001 42.09188,34.758818 55.72992,34.781568 4.78097,0.002 14.585651,3.6071299 21.787741,7.9983799 10.56538,6.44053 13.79164,6.99858 16.68541,2.87811 2.82636,-4.01818 3.23187,-3.8732 1.90421,0.68005 -0.92754,3.1826 1.54343,12.2242701 5.49148,20.0955201 3.9488,7.87068 7.17866,18.1531 7.17866,22.85065 v 8.54118 l 9.13837,-8.58538 c 27.54078,-25.87372 51.71513,-108.471281 31.74528,-108.471281 -6.09045,0 -34.2544,29.3883 -44.35446,46.284051 -4.43933,7.42479 -8.0775,11.9689999 -8.08548,10.0979899 -0.005,-5.8011899 16.03833,-30.6762169 28.55448,-44.2201619 31.89823,-34.516669 45.96565,-18.512306 29.69059,33.778672 -4.02055,12.9170099 -6.36841,23.4840999 -5.21834,23.4840999 1.14972,0 9.21218,-5.82839 17.91602,-12.95358 33.57784,-27.4881219 83.16234,-45.8691219 101.36464,-37.5746099 8.42635,3.838411 9.5248,6.235927 7.49552,16.377484 -1.30684,6.533293 -8.45565,20.1606459 -15.88532,30.2822859 -7.42967,10.1212701 -13.50864,19.4705701 -13.50864,20.7787401 0,1.30719 5.20691,2.37637 11.57084,2.37637 26.44929,0 7.28708,36.60927 -27.33449,52.22051 -8.29947,3.74353 -15.09146,7.84584 -15.0905,9.11349 0.001,1.2682 8.67921,9.7793 19.28493,18.912865 10.60549,9.13324 19.28251,19.43347 19.28251,22.88859 0,11.0426 -15.89972,39.5738 -22.05395,39.5738 -3.26454,0 -12.66237,-6.07552 -20.88109,-13.4996 -15.49173,-13.99657 -14.02381,-18.14509 2.5727,-7.27056 5.22837,3.42631 9.50688,8.63319 9.50688,11.57109 0,2.93793 3.61602,5.34269 8.0352,5.34269 4.79899,0 7.32393,-1.94262 6.26957,-4.82185 -0.97128,-2.65164 1.78753,-11.29609 6.13069,-19.2083 7.79867,-14.20601 7.80443,-14.49088 0.4805,-22.59392 -4.07882,-4.51437 -12.25058,-11.65198 -18.15911,-15.864755 -13.00181,-9.26818 -22.04171,-4.25614 -22.04171,12.221305 0,5.77586 -3.4719,13.64211 -7.71422,17.48228 -4.24303,3.83959 -7.71378,5.07871 -7.71378,2.75378 0,-2.32487 1.73612,-5.29994 3.85701,-6.611 8.96257,-5.53898 2.59972,-9.64256 -14.9563,-9.64256 -20.44499,0 -29.28927,6.20257 -24.95413,17.50092 1.82013,4.74221 1.23697,6.03256 -1.86245,4.11797 -3.06573,-1.89546 -4.51151,0.96493 -4.51151,8.93163 0,35.63239 -23.32638,57.35394 -63.51118,59.14067 -11.73091,0.52175 -21.332451,2.09603 -21.336281,3.4986 -10e-4,1.40171 5.333661,7.04305 11.861071,12.53524 20.00311,16.83207 57.77443,9.99625 80.38051,-14.54657 10.4195,-11.31235 16.36325,-49.3882 8.47053,-54.26695 -2.36233,-1.45946 -4.29296,-4.58936 -4.29296,-6.9549 0,-5.91051 18.1166,11.59835 27.18849,26.27692 7.18903,11.63335 9.0445,35.05171 7.60943,96.11756 -1.17914,50.21724 -36.12412,86.78329 -82.93808,86.78329 -7.23022,0 -18.9154,4.7933 -29.20477,11.97991 l -17.152041,11.97981 13.474541,-11.68321 c 7.41143,-6.4258 12.61807,-12.37029 11.57093,-13.21126 -3.2231,-2.58849 -31.192421,-18.35013 -32.561531,-18.35013 -0.70911,0 -4.16256,7.18347 -7.67562,15.96326 -3.51307,8.7794 -11.83535,23.8803 -18.49274,33.557 l -12.10518,17.59427 22.89419,-12.5106 c 12.5924,-6.88075 19.42366,-9.69352 15.18071,-6.25066 -7.71699,6.26278 -42.27761,24.92971 -46.15513,24.92971 -1.12969,0 -2.0586,-0.86293 -2.0586,-1.91762 z M 172.16647,311.87693 c 19.8643,-5.95159 39.20282,-25.94126 46.8729,-48.45314 9.43114,-27.67821 7.2588,-30.38211 -9.29796,-11.57282 -17.60195,19.99719 -40.34493,28.05189 -67.64498,23.95791 -20.10786,-3.01525 -40.57604,-14.87589 -43.237441,-25.05478 -4.12347,-15.76653 -9.73077,-7.19157 -7.88164,12.05178 2.16638,22.5481 11.115311,36.43117 30.020341,46.56944 15.47363,8.2987 29.52769,8.98585 51.16878,2.50161 z M -20.552731,262.35626 c 3.03424,-4.33217 7.87651,-7.36945 10.7602703,-6.74964 8.44089,1.81365 6.26565,-22.93694 -2.5976103,-29.56006 -7.13751,-5.33268 -7.06856,-5.47338 1.61069,-3.28305 7.3955303,1.86644 8.8108203,0.9422 7.6745603,-5.0128 -1.66685,-8.73847 -13.3139703,-11.07571 -27.7811403,-5.57505 -9.55298,3.632 -10.29426,5.28302 -7.95952,17.72949 1.99686,10.64435 1.06132,14.83069 -4.16492,18.65309 -5.55284,4.05993 -5.95058,6.40425 -2.25977,13.30158 5.64291,10.54276 17.51317,10.78181 24.71744,0.49644 z m -25.83163,-19.54744 c 4.19145,-4.69626 4.59968,-8.69262 1.67236,-16.39247 -4.42427,-11.63629 -12.22873,-13.03541 -21.42219,-3.84166 -7.19462,7.19458 -5.32663,20.57238 5.04029,36.08691 l 6.44316,9.64182 1.36157,-9.64182 c 0.74859,-5.30332 3.85578,-12.43706 6.90481,-15.85278 z M 9.0807293,231.66281 c 0,-2.1215 -1.73544,-3.85727 -3.85725,-3.85727 -2.12122,0 -3.85666,1.73577 -3.85666,3.85727 0,2.12127 1.73544,3.85669 3.85666,3.85669 2.12181,0 3.85725,-1.73542 3.85725,-3.85669 z M -17.187091,206.05396 c 27.67771,-3.56086 30.6334,-20.675 3.57069,-20.675 -10.69873,0 -16.99263,2.65251 -23.87872,10.06384 -5.14341,5.5356 -12.82214,11.63653 -17.06473,13.55736 -5.70742,2.58448 -4.2015,2.95845 5.78552,1.43727 7.42503,-1.13139 21.63866,-3.10348 31.58724,-4.38347 z M 170.1114,134.27337 c 4.47909,-4.77286 10.66682,-10.7305 13.75127,-13.23602 3.89382,-3.16551 5.2018,-10.2421 4.2761,-23.142695 -1.09597,-15.28786 -0.75643,-16.53162 1.91618,-7.01262 2.26275,8.05649 3.39546,9.227825 3.72965,3.85661 0.26586,-4.24255 2.88972,-12.33181 5.83473,-17.9765 4.79334,-9.18811 4.64577,-10.44918 -1.40605,-12.03157 -9.54557,-2.49628 -29.8202,6.81854 -42.13682,19.35843 -5.75464,5.85756 -14.27914,13.67102 -18.94406,17.362035 -16.67304,13.19133 -6.74318,41.50028 14.55995,41.50028 5.67412,0 13.92373,-3.88666 18.41905,-8.67795 z m 69.60626,-33.51453 8.38174,-11.336395 -9.90209,-7.78935 c -16.3861,-12.88922 -25.2553,-14.04254 -33.13377,-4.31342 -13.98482,17.27062 -6.80121,34.775585 14.27023,34.775585 8.80889,0 14.23314,-3.01781 20.38389,-11.33642 z m -186.462661,3.00338 c 10.50359,-4.786575 12.33179,-8.945305 5.72527,-13.030145 -4.23539,-2.61598 -19.04351,8.46532 -19.04351,14.247235 0,4.26962 1.59577,4.12455 13.31824,-1.21709 z m 34.59514,-23.710055 c 2.64977,-4.2012 2.69631,-7.60408 0.13313,-10.16412 -6.08786,-6.08753 -26.86397,12.25466 -23.57795,20.81618 2.35171,6.12835 3.50191,6.2591 11.0427,1.25195 4.6305,-3.07453 10.21066,-8.43123 12.40181,-11.90401 z m 94.007701,-17.87164 c 13.52176,-3.87843 32.72099,0.13386 55.09109,11.51856 l 13.8052,7.02392 18.97893,-10.86501 c 23.12745,-13.24029 33.59397,-24.30696 31.82204,-33.65136 -1.63544,-8.6242 -25.44294,-11.65585 -38.71174,-4.93012 -4.8639,2.4649 0.31547,-3.68368 11.50791,-13.66434 22.11689,-19.7196701 31.71877,-34.76633 31.71877,-49.702896 0,-13.527127 -10.1857,-15.369016 -37.6803,-6.811481 -32.00525,9.961537 -74.56194,39.1725969 -97.86806,67.177477 -20.81669,25.01393 -26.446,36.09191 -26.446,52.04319 v 10.14841 l 12.78607,-12.39187 c 7.03161,-6.81589 18.27995,-13.96833 24.99609,-15.89448 z m -72.49516,-8.53836 c 0,-3.91323 -1.69546,-7.11572 -3.76778,-7.11572 -5.794921,0 -16.519531,18.39866 -13.538251,23.22404 3.64762,5.90048 17.306031,-6.80969 17.306031,-16.10832 z M 51.507689,-5.5433451 c 3.83157,-4.6158999 3.83157,-6.9550299 0,-11.5710199 -2.64097,-3.18165 -7.00004,-5.785515 -9.68709,-5.785515 -8.095,0 -22.62096,13.8130849 -19.62461,18.6607249 3.96133,6.41207 23.63434,5.53687 29.3117,-1.30419 z M -113.95609,156.29693 c -1.11116,-22.56952 20.148049,-76.843165 38.464159,-98.199725 8.2415,-9.60901 8.24109,-9.59492 -0.13844,3.85753 -15.42566,24.75578 -27.052049,52.443855 -32.519589,77.450585 -2.9789,13.61845 -5.58952,21.21929 -5.8026,16.89161 z m -7.49203,-24.91654 c 0,-5.30378 0.87532,-7.47332 1.94481,-4.82111 1.07206,2.6518 1.07206,6.99085 0,9.64133 -1.06949,2.65275 -1.94481,0.48315 -1.94481,-4.82022 z"
       id="path339" /><path
       style="opacity:0.55;fill:#000000;stroke:#000000;stroke-width:0.264999"
       d="m 742.87332,111.73636 c 1.71614,-1.11131 1.71614,-1.11131 0,0 z"
       id="path577" /><path
       style="opacity:0.55;fill:#f9f9f9;stroke:#000000;stroke-width:4.76393"
       d=""
       id="path759"
       transform="matrix(0.26458333,0,0,0.26458333,8.0621796,52.848976)" /><path
       style="opacity:0.55;fill:#ffffff;stroke:#000000;stroke-width:4.76393"
       d=""
       id="path846"
       transform="matrix(0.26458333,0,0,0.26458333,8.0621796,52.848976)" /><path
       style="opacity:0.55;fill:#ffffff;stroke:#000000;stroke-width:4.76393"
       d=""
       id="path848"
       transform="matrix(0.26458333,0,0,0.26458333,8.0621796,52.848976)" /><path
       style="opacity:0.55;fill:#ffffff;stroke:#000000;stroke-width:0.500787"
       d="m 3092.75,678.71342 c -21.421,-2.37157 -32.5279,-7.28207 -46.8584,-20.71681 -12.1369,-11.3782 -19.1482,-24.41172 -20.6536,-38.39362 -1.6335,-15.17234 4.2945,-33.70713 17.5855,-54.98367 13.573,-21.72778 27.1602,-33.87408 42.4265,-37.92723 6.185,-1.64208 15.3645,-1.5528 22.1005,0.21494 12.878,3.37962 29.1264,11.78651 51.3995,26.59391 5.9125,3.93069 14.7258,10.151 19.585,13.82289 8.7788,6.63369 33.9215,27.30446 33.9078,27.87688 -0.013,0.53641 -27.5991,37.16279 -32.9928,43.80458 -6.1029,7.51518 -17.2129,19.11992 -22.25,23.24095 -10.6402,8.70509 -20.741,13.41587 -33.75,15.74025 -5.6403,1.00777 -24.009,1.44556 -30.5,0.72693 z M 3116,674.4844 c 22.2892,-1.42144 38.2721,-11.55488 59.9106,-37.9844 3.7248,-4.54958 20.5043,-26.64863 28.7357,-37.84577 l 2.0921,-2.84577 -7.6192,-6.43217 c -28.0971,-23.71982 -53.005,-40.74252 -75.6118,-51.67516 -13.3975,-6.47898 -20.4691,-8.31278 -30.143,-7.8166 -6.1868,0.31733 -10.515,1.50336 -16.1144,4.41577 -10.8831,5.6606 -21.939,17.67753 -32.6147,35.4497 -6.9215,11.52238 -11.2525,21.39891 -13.743,31.33962 -1.206,4.81356 -1.3537,6.32044 -1.3393,13.66038 0.015,7.51402 0.1374,8.65144 1.3757,12.75 1.8466,6.11245 5.1601,12.64325 9.0117,17.76224 6.4521,8.57502 18.1407,18.483 27.0596,22.93741 6.5442,3.26837 18.7417,5.82295 31.25,6.5448 6.1317,0.35385 8.7175,0.31597 17.75,-0.26005 z"
       id="path857"
       transform="matrix(0.26458333,0,0,0.26458333,8.0621796,52.848976)" /><path
       style="opacity:0.55;fill:#000000;stroke:#000000;stroke-width:0.264999"
       d="m -118.07607,115.26871 c 0.67767,0.002 -1.38321,5.81218 -1.48716,5.86273 -1.04067,0.50608 -0.54545,1.24699 -0.69017,1.28697 -0.32605,0.0901 -0.77876,-0.24232 -1.01478,0 -0.35059,0.35994 0.41776,1.2282 0,1.5074 -0.19304,0.12901 -0.5148,-0.14448 -0.69656,0 -0.21872,0.17385 0.91037,4.35797 0.91037,6.19749 0,1.38666 0.57832,4.34094 0,5.53775 -0.67907,1.40531 -2.01543,0.81122 -1.29194,0.74352 0.94597,-0.0885 1.89533,-0.13598 2.843,-0.20396"
       id="path1059" /><path
       style="opacity:0.55;fill:#000000;stroke:#000000;stroke-width:0.264999"
       d="m -121.88328,161.46342 c 0.35168,-0.65373 1.70878,-1.60948 1.05505,-1.96117 -0.65373,-0.35168 -0.89983,2.68708 -1.05505,1.96117 -0.22773,-1.06495 0.90122,-6.07726 0.22886,-8.06987 -0.82426,-2.44281 -1.63343,-7.74805 -0.76219,-10.45422 0.11909,-0.36991 1.3887,-5.17528 1.36471,-5.21281 -0.33222,-0.51959 -0.86294,-0.8813 -1.29441,-1.32195"
       id="path1061" /><path
       style="opacity:0.55;fill:#000000;stroke:#000000;stroke-width:0.264999"
       d="m 225.0733,132.20589 c 1.71096,6.34082 5.01171,3.03649 8.3311,5.6097 0.28776,0.22309 0.33588,0.97354 0.59835,1.23964 0.15679,0.15898 0.50744,-0.15323 0.66987,0 0.75965,0.71666 1.35139,2.11258 1.7788,3.1521 0.0891,0.21655 2.75047,-0.069 3.00675,0 3.62447,0.97624 7.21407,2.07749 10.82111,3.11624"
       id="path1063" /><path
       style="opacity:0.55;fill:#000000;stroke:#000000;stroke-width:0.264999"
       d="m 233.4044,137.81559 3.04702,4.39174"
       id="path1065" /><path
       style="opacity:0.55;fill:#000000;stroke:#000000;stroke-width:0.264999"
       d="m 132.51938,-8.9448257 c -1.1815,3.5345528 -0.66196,6.4862074 -3.01805,8.5072192"
       id="path1067" /><path
       style="opacity:0.55;fill:#000000;stroke:#000000;stroke-width:0.264999"
       d="m 92.005947,384.15509 c 5.648497,-5.37983 11.772123,-5.49055 14.451973,-10.95026"
       id="path1069" /><path
       style="opacity:0.55;fill:#000000;stroke:#000000;stroke-width:0.264999"
       d="m -120.82823,159.50225 c 0.35047,-0.68678 0.72056,-14.22751 0.52861,-14.34699 -0.18975,-0.11812 -0.5204,0.16558 -0.67053,0 -0.62366,-0.68791 -0.70744,-6.93143 -0.0817,-7.42874"
       id="path1071" /><path
       style="opacity:0.55;fill:#000000;stroke:#000000;stroke-width:0.264999"
       d="m -118.07607,115.26871 c -2.21572,4.39041 -2.15666,2.37514 -1.48716,5.86273"
       id="path1073" /><path
       style="opacity:0.55;fill:#000000;stroke:#000000;stroke-width:0.264999"
       d="m 92.005944,384.15509 c 7.359616,2.57627 2.547564,-5.74945 5.032087,-7.4005 0.967401,-0.64289 1.628767,-0.17357 2.801487,-0.56301 0.887892,-0.29485 3.762952,-2.76778 4.545852,-2.76778 0.61788,0 -2.26298,0.79992 -2.3503,0.86757 -0.14291,0.11073 0.14498,0.43437 0,0.54234 -1.25369,0.9339 -4.19791,-0.0368 -5.49299,0.68599 -1.077865,0.60155 -1.000459,1.392 -1.275821,1.65912 -0.231566,0.22463 -0.704863,-0.18685 -0.967872,0 -0.259652,0.18447 0.37583,0.82434 0.663487,0.6876 0.256014,-0.12171 0.326237,-0.6695 0.601372,-0.60127 1.463328,0.36285 2.7716,1.18751 4.1574,1.78128"
       id="path1075" /><path
       style="opacity:0.55;fill:#ffff00;stroke:#000000;stroke-width:2.83288"
       d="m 234.31912,1124.2103 c -20.79026,-2.8904 -33.02936,-13.714 -46.73167,-41.3268 -12.98269,-26.1627 -17.86775,-30.8198 -21.63787,-20.6282 -2.32088,6.274 -2.36886,6.2628 -8.05449,-1.8844 -3.14584,-4.5078 -10.24385,-17.1056 -15.77336,-27.995 -9.83574,-19.3698 -10.08869,-20.7092 -11.66961,-61.79169 -1.2585,-32.70419 -0.79086,-42.8178 2.11418,-45.72282 2.48671,-2.48673 4.29165,-15.61459 5.41468,-39.38254 1.66526,-35.24362 1.79194,-35.77813 11.04776,-46.61644 5.14975,-6.03021 20.18191,-31.04761 33.40481,-55.59423 47.94734,-89.00809 86.39357,-138.99004 179.11153,-232.85367 70.71269,-71.58645 104.50323,-99.80479 113.12911,-94.4737 3.18351,1.96752 1.03868,24.30297 -4.83474,50.34764 -23.3048,103.34069 43.65804,188.00383 160.3562,202.7431 49.02934,6.19253 107.24352,-6.68074 153.13187,-33.86306 29.97977,-17.75873 66.74471,-54.45382 84.35371,-84.19342 28.04204,-47.35988 43.8495,-107.8751 40.22258,-153.98308 -1.16251,-14.77853 -2.26967,-33.23402 -2.46039,-41.01219 l -0.34674,-14.14214 16.65058,0.7671 c 21.19015,0.97625 54.15847,12.00495 74.78633,25.01784 20.62931,13.01379 48.78601,40.38565 63.31441,61.54952 16.9853,24.74282 35.5207,65.93299 43.714,97.14306 5.9505,22.66725 7.5162,36.33259 8.6816,75.77465 1.5968,54.04387 -1.3777,76.35883 -11.4003,85.52503 -3.4331,3.13975 -14.1682,9.59498 -23.8559,14.34493 -32.9401,16.15091 -85.34936,59.60503 -183.20443,151.90043 -93.88463,88.55055 -125.0117,112.38758 -173.41757,132.80258 -42.80242,18.0518 -109.80593,37.0632 -174.47897,49.5064 -27.69386,5.3284 -129.01448,17.5879 -130.81164,15.8279 -2.07654,-2.0336 112.34982,-102.9561 159.20523,-140.41683 10.82932,-8.65799 41.32714,-33.01309 67.77294,-54.12247 55.47349,-44.27962 61.99465,-50.64966 67.02028,-65.46722 4.2397,-12.50026 8.91591,-14.79533 10.29438,-5.05242 0.88445,6.25144 1.92335,6.61334 15.70359,5.47057 26.23867,-2.17591 103.71161,-43.15885 166.8447,-88.26036 81.92438,-58.52578 126.30239,-124.36155 107.86359,-160.01818 -2.3164,-4.47941 -6.8069,-8.9681 -9.97902,-9.97488 -11.72179,-3.72035 -69.41039,34.00017 -147.0977,96.18192 -56.56048,45.27163 -92.97812,78.36856 -134.39319,122.13872 -59.06415,62.42285 -143.68981,135.32893 -250.2049,215.55465 -68.16301,51.3394 -104.48079,75.6144 -137.28761,91.7637 -41.31499,20.3374 -71.28739,27.921 -96.49796,24.416 z M 163.74136,989.24239 c 2.41442,-7.38927 8.78572,-31.93855 14.15844,-54.55394 23.88522,-100.5399 61.40336,-190.25593 121.00652,-289.35942 13.88586,-23.08832 24.80825,-43.29506 24.27198,-44.90387 -1.08115,-3.24343 -23.30178,21.78215 -40.72914,45.87044 -59.65958,82.46211 -123.18075,246.16375 -127.58612,328.80465 -1.64533,30.86495 1.68228,36.16545 8.87832,14.14214 z"
       id="path1077"
       transform="matrix(0.26458333,0,0,0.26458333,-154.8532,-107.54718)" /><path
       style="opacity:0.55;fill:#ffff00;stroke:#000000;stroke-width:2.83288"
       d="m 1138.3021,942.40171 c -47.2667,-13.28087 -74.5994,-63.24259 -60.7511,-111.04746 5.4043,-18.65615 5.2271,-18.46176 82.1301,-90.07263 54.1774,-50.44909 84.2675,-70.22152 126.8441,-83.35022 31.1875,-9.61684 61.0453,-6.75787 63.518,6.08205 0.5135,2.66632 -4.7504,17.27146 -11.6976,32.45587 -13.9796,30.5552 -21.7128,54.17026 -21.7128,66.30515 0,13.90794 -4.444,8.66356 -11.3685,-13.41598 -3.6891,-11.76335 -7.7494,-22.03178 -9.0227,-22.81873 -1.2733,-0.78696 -1.9962,23.15651 -1.6064,53.2077 0.6435,49.60045 0.1907,55.70741 -4.9102,66.23049 -3.333,6.87583 -20.2581,25.62033 -41.601,46.07287 -48.9692,46.92637 -76.7231,59.6509 -109.8219,50.35089 z"
       id="path1079"
       transform="matrix(0.26458333,0,0,0.26458333,-154.8532,-107.54718)" /><path
       style="opacity:0.55;fill:#ffff00;stroke:#000000;stroke-width:2.83288"
       d="m 1588.8864,1016.6212 c -12.6624,-2.6339 -17.1455,-7.0556 -20.7589,-20.47461 -5.6098,-20.83321 -29.6814,-40.69528 -77.5561,-63.99344 l -41.4481,-20.17068 14.0525,-13.34239 c 19.9601,-18.95144 28.63,-37.85278 31.8843,-69.51146 3.4376,-33.44078 6.4672,-42.08968 18.4195,-52.584 12.2246,-10.73331 25.0936,-11.27938 44.9837,-1.90878 21.8615,10.29933 58.1219,40.56147 89.8026,74.94735 21.2588,23.07401 21.2778,27.48044 0.2908,67.48978 -19.3695,36.92594 -29.2822,64.33353 -29.2822,80.96236 0,6.83907 -1.591,13.69257 -3.5355,15.22987 -5.2113,4.1201 -16.4352,5.5228 -26.8526,3.356 z"
       id="path1081"
       transform="matrix(0.26458333,0,0,0.26458333,-154.8532,-107.54718)" /><path
       style="opacity:0.55;fill:#ffff00;stroke:#000000;stroke-width:2.83288"
       d="m 1107.3292,1597.6996 c -19.7171,-3.7858 -53.0298,-17.0103 -72.8375,-28.9151 -55.3769,-33.2825 -82.64438,-69.6577 -97.40337,-129.9374 -10.05506,-41.0676 -7.96684,-113.729 3.26846,-113.729 4.28502,0 10.86057,10.4478 15.44767,24.5445 6.63448,20.3886 18.06284,35.0145 38.91721,49.8057 51.49843,36.5259 110.30883,54.0017 180.48983,53.6334 31.4547,-0.1651 43.1421,-1.4872 66.3197,-7.5023 54.915,-14.2516 93.0601,-38.6099 141.4405,-90.3197 30.5407,-32.6423 44.8681,-44.058 48.3088,-38.491 4.8836,7.9019 -16.8059,84.3061 -33.2774,117.2239 -21.2907,42.5489 -61.7208,90.9085 -97.1776,116.2369 -41.9103,29.9383 -93.9022,46.4222 -151.0699,47.8962 -19.4454,0.5014 -38.5373,0.3006 -42.4264,-0.4461 z"
       id="path1083"
       transform="matrix(0.26458333,0,0,0.26458333,-154.8532,-107.54718)" /><path
       style="opacity:0.55;fill:#ffff00;stroke:#000000;stroke-width:2.83288"
       d="m 438.4062,1418.8219 c -12.37662,-7.6868 -20.15196,-17.0465 -26.97543,-32.4721 -7.80283,-17.6396 -5.95031,-24.0618 11.0453,-38.2913 18.49484,-15.4848 21.32298,-23.1893 19.07856,-51.9747 -0.99885,-12.8104 -2.58375,-32.9166 -3.52201,-44.6806 -1.69695,-21.2762 -1.65998,-21.4276 7.0143,-28.7265 4.79613,-4.0357 19.26473,-10.8803 32.15245,-15.2101 53.87628,-18.1008 95.51067,-4.8235 95.54655,30.47 0.0133,12.9634 -3.13365,13.8174 -30.29703,8.2221 -11.22445,-2.3121 -21.24114,-3.3707 -22.2593,-2.3526 -1.01816,1.0182 5.78904,9.2294 15.12711,18.2471 19.5686,18.8973 28.42,38.5595 30.93513,68.7183 2.12456,25.4756 -3.6747,39.6014 -16.25808,39.6014 -14.15529,0 -27.32286,7.9822 -43.11028,26.1334 -8.06752,9.2754 -19.406,19.2814 -25.19661,22.2356 -13.43658,6.8548 -32.31627,6.8897 -43.28066,0.08 z"
       id="path1085"
       transform="matrix(0.26458333,0,0,0.26458333,-154.8532,-107.54718)" /><path
       style="opacity:0.55;fill:#ffff00;stroke:#000000;stroke-width:2.83288"
       d="m 388.29992,1193.0561 c 9.706,-5.7419 30.93267,-22.8709 47.17039,-38.0645 16.23771,-15.1936 35.90617,-30.8593 43.70768,-34.8126 37.59962,-19.0532 111.71565,-12.2082 122.4299,11.307 6.67092,14.6411 -11.67465,32.8402 -43.89678,43.5464 -14.01214,4.6557 -166.62313,28.3966 -182.88016,28.4497 -2.29806,0.01 3.76298,-4.6842 13.46897,-10.426 z"
       id="path1087"
       transform="matrix(0.26458333,0,0,0.26458333,-154.8532,-107.54718)" /><path
       style="opacity:0.55;fill:#ffff00;stroke:#000000;stroke-width:0.264999"
       d="m 187.15743,137.57122 c 2.25745,0.81455 4.58541,1.45526 6.77235,2.44366 0.0897,0.0406 0.31729,1.23239 0.39153,1.30369 0.26101,0.25071 0.89755,0.11 1.0699,0.43776 0.19957,0.37946 -0.31586,0.99632 0,1.28623 0.16346,0.15002 0.51816,-0.16578 0.66561,0 0.22696,0.2552 -0.27527,1.60846 0,1.80128 0.42455,0.2974 2.56159,3.18928 2.56159,3.69893 0,0.70634 -0.0752,-1.4289 -0.30419,-2.09708 -0.37841,-1.10389 -1.03643,-1.39583 -1.42037,-2.1686 -0.45116,-0.90815 -8.72712,-5.9352 -9.73642,-6.70587 z"
       id="path1154" /><path
       style="opacity:0.55;fill:#ffffff;stroke:#000000;stroke-width:2.83288"
       d="m 1061.0701,1272.5546 c -27.1283,-6.5671 -53.4719,-22.3409 -79.76552,-47.7616 -13.1351,-12.699 -23.882,-24.444 -23.882,-26.1 0,-4.8031 22.60193,-9.2131 62.95942,-12.2844 47.7392,-3.6331 73.6294,-7.3899 98.5835,-14.3051 94.4153,-26.1638 151.2341,-96.2426 156.8607,-193.46772 2.2165,-38.29983 4.0461,-49.67848 8.2473,-51.29061 2.0978,-0.805 12.0314,4.0489 22.0747,10.78645 14.8602,9.96893 17.5628,12.90201 14.513,15.75097 -5.3757,5.02162 -0.105,18.41595 11.586,29.44319 5.6981,5.3745 10.5726,13.60853 12.4351,21.00502 9.2547,36.7541 -5.1616,118.5145 -28.7746,163.1909 -18.2837,34.5932 -75.9772,77.3619 -129.3698,95.9032 -39.5238,13.7251 -91.0086,17.4715 -125.4678,9.1297 z"
       id="path1156"
       transform="matrix(0.26458333,0,0,0.26458333,-154.8532,-107.54718)" /><path
       style="opacity:1;fill:#ffffff;stroke:#000000;stroke-width:2.83288"
       d="m 357.73642,1385.6124 c -44.01227,-67.9406 -48.47642,-114.7422 -13.66551,-143.2671 15.61266,-12.7934 26.64377,-17.0812 38.31256,-14.8921 18.25244,3.4241 38.17677,37.0396 38.79695,65.4565 0.20848,9.5526 -2.19943,15.2558 -13.14903,31.1437 -14.90229,21.6231 -23.44997,43.0855 -26.39175,66.2669 -3.24159,25.5441 -4.4615,25.3038 -23.90322,-4.7079 z"
       id="path1158"
       transform="matrix(0.26458333,0,0,0.26458333,-154.8532,-107.54718)" /><path
       style="opacity:1;fill:#ffffff;stroke:#000000;stroke-width:2.83288"
       d="m 1398.6572,826.96764 c -40.6088,-4.85517 -63.5227,-27.76793 -63.2952,-63.29232 0.1765,-27.56758 21.7553,-66.29949 44.9105,-80.6102 27.4375,-16.95731 58.4352,-3.66066 136.3676,58.49566 3.5635,2.8421 1.5501,6.85657 -13.4761,26.87006 -23.5489,31.36483 -35.8,44.06633 -49.1434,50.95003 -13.7955,7.11696 -34.9948,10.02202 -55.3634,7.58677 z"
       id="path1160"
       transform="matrix(0.26458333,0,0,0.26458333,-154.8532,-107.54718)" /><path
       style="opacity:1;fill:#ffffff;stroke:#000000;stroke-width:2.83288"
       d="m 1131.0248,712.10583 c 1.9524,-35.29586 7.9975,-61.52599 19.4041,-84.19501 19.614,-38.98022 75.7457,-111.28487 122.8504,-158.24682 80.1492,-79.90615 202.7614,-161.54238 297.6774,-198.19603 58.7191,-22.67552 122.5236,-34.52344 145.3498,-26.99013 40.4786,13.35913 28.6055,88.03254 -24.5575,154.44948 -9.9091,12.37958 -41.0883,44.5967 -69.2871,71.5936 -45.0219,43.10293 -56.996,56.98459 -49.1493,56.97932 1.1667,-7.9e-4 9.1217,-2.72632 17.6777,-6.05672 22.35,-8.69971 70.0635,-10.62999 95.118,-3.84807 23.5459,6.37359 37.818,18.83476 37.818,33.01935 0,15.68473 -12.7276,37.09264 -33.9616,57.12379 -23.6879,22.34596 -46.1958,37.70356 -108.3143,73.90522 l -47.5237,27.69599 -50.057,-24.2295 c -79.6544,-38.55565 -128.1451,-51.96522 -178.7506,-49.43149 -20.2279,1.01278 -31.2997,3.16575 -44.7896,8.70964 -28.3754,11.66126 -64.163,37.33563 -99.1173,71.10759 l -32.3012,31.20872 z"
       id="path1162"
       transform="matrix(0.26458333,0,0,0.26458333,-154.8532,-107.54718)" /><path
       style="opacity:1;fill:#ffffff;stroke:#000000;stroke-width:2.83288"
       d="m 936.15045,669.87424 c -6.18996,-6.18996 -4.10779,-16.54119 8.50278,-42.27046 9.7501,-19.89306 31.05354,-43.53358 39.22989,-43.53358 10.2731,0 15.88944,21.14238 10.24979,38.58471 -5.2129,16.1225 -21.45504,36.89201 -35.10667,44.8924 -14.16937,8.30381 -16.6469,8.55582 -22.87579,2.32693 z"
       id="path1164"
       transform="matrix(0.26458333,0,0,0.26458333,-154.8532,-107.54718)" /><path
       style="opacity:1;fill:#ffffff;stroke:#000000;stroke-width:2.83288"
       d="m 834.45864,756.74471 c -6.65537,-12.87005 -5.30385,-24.97472 4.49311,-40.24195 24.66704,-38.44025 69.6535,-59.81862 81.4484,-38.70573 6.71201,12.0145 0.44014,27.16752 -19.7193,47.64238 -18.35966,18.64693 -48.42684,39.65013 -56.76123,39.65013 -2.8375,0 -7.08141,-3.74324 -9.46098,-8.34483 z"
       id="path1166"
       transform="matrix(0.26458333,0,0,0.26458333,-154.8532,-107.54718)" /><path
       style="opacity:1;fill:#ffffff;stroke:#000000;stroke-width:2.83288"
       d="m 738.35848,807.95391 c -4.14312,-13.05382 20.97611,-40.78127 48.26195,-53.27314 14.45878,-6.61944 15.89133,-6.78474 22.31619,-2.57502 20.59764,13.4961 13.94637,25.6702 -24.46754,44.78398 -33.66744,16.75206 -43.55252,19.12397 -46.1106,11.06418 z"
       id="path1168"
       transform="matrix(0.26458333,0,0,0.26458333,-154.8532,-107.54718)" /><path
       style="opacity:0.55;fill:#ffff00;stroke:#000000;stroke-width:2.83288"
       d="m 1067.7312,1271.3338 c -24.9377,-5.1991 -56.7516,-23.7146 -83.0931,-48.36 -17.45559,-16.3315 -23.7226,-23.8548 -21.07866,-25.3041 3.95938,-2.1702 33.85295,-6.0779 85.78706,-11.214 17.1119,-1.6923 40.6586,-5.0269 52.3259,-7.4101 83.0564,-16.9659 143.9298,-69.3867 166.612,-143.4771 5.2836,-17.2587 7.2016,-30.0798 13.2768,-88.75252 0.9369,-9.04795 2.8992,-14.84924 5.0229,-14.84924 1.917,0 9.4621,3.79034 16.7671,8.42298 11.6235,7.37146 13.2816,9.63959 13.2816,18.16814 0,6.88733 3.0654,13.74854 10.453,23.39681 5.7491,7.50842 12.0572,18.10643 14.018,23.55113 9.6246,26.7262 -2.3595,103.8384 -23.1926,149.2326 -12.1458,26.4653 -34.0962,49.5683 -69.5071,73.1569 -45.6206,30.3898 -83.1019,42.7976 -135.418,44.829 -17.8898,0.6946 -38.2545,0.069 -45.2549,-1.3905 z"
       id="path1172"
       transform="matrix(0.26458333,0,0,0.26458333,-154.8532,-107.54718)" /><path
       style="opacity:0.55;fill:#ffffff;stroke:#000000;stroke-width:1.41644"
       d="m 598.60145,1293.9223 c -4.73465,-2.5694 -6.75307,-6.1375 -6.75307,-11.9377 0,-5.9697 2.06588,-9.4325 7.21621,-12.0959 5.69546,-2.9452 11.5577,-1.5515 16.08008,3.8231 5.09838,6.0591 4.70517,11.6669 -1.23456,17.6066 -5.24649,5.2465 -9.19995,5.9189 -15.30866,2.6039 z"
       id="path1176"
       transform="matrix(0.26458333,0,0,0.26458333,-154.8532,-107.54718)" /><path
       style="opacity:1;fill:#ffffff;stroke:#000000;stroke-width:2.83288"
       d="m 695.79307,403.2525 c -18.91405,-4.56453 -28.41852,-13.44601 -25.75327,-24.06521 0.96166,-3.83155 8.85678,-14.64428 17.54471,-24.02828 19.05187,-20.57831 46.73739,-35.74866 59.94598,-32.84757 12.87094,2.82693 30.52302,17.32758 36.97971,30.37772 l 5.82719,11.7778 -6.22957,11.08402 c -12.66971,22.54272 -54.85763,35.77572 -88.31475,27.70152 z"
       id="path1180"
       transform="matrix(0.26458333,0,0,0.26458333,-154.8532,-107.54718)" /><path
       style="opacity:1;fill:#ffffff;stroke:#000000;stroke-width:2.83288"
       d="m 831.1975,1870.2974 c 34.54829,-51.894 61.1664,-100.7204 83.83422,-153.7796 18.32779,-42.9004 16.15173,-41.3779 40.4266,-28.2855 46.30518,24.9742 98.13078,56.1202 98.13078,58.9744 0,10.404 -63.90957,70.0577 -75.05572,70.0577 -3.64915,0 -7.42144,1.2728 -8.38288,2.8285 -0.96143,1.5556 -5.93045,2.8284 -11.04226,2.8284 -11.40366,0 -22.46948,10.0229 -15.71533,14.2343 6.73055,4.1966 0.18204,10.8561 -17.87018,18.1729 -8.98892,3.6434 -41.12317,20.1161 -71.40945,36.606 -30.28628,16.49 -55.56431,29.9817 -56.17341,29.9817 -0.6091,0 14.35683,-23.2284 33.25763,-51.6188 z"
       id="path1182"
       transform="matrix(0.26458333,0,0,0.26458333,-154.8532,-107.54718)" /><path
       style="opacity:1;fill:#ffff00;stroke:#000000;stroke-width:2.83288"
       d="m 219.71116,1116.7146 c -10.84812,-5.3457 -18.19653,-14.549 -32.88022,-41.18 -11.84797,-21.488 -14.28438,-23.8222 -19.95374,-19.1171 -5.68028,4.7143 -7.21593,3.0659 -19.63615,-21.0776 -10.55443,-20.5167 -11.2221,-23.3789 -13.42074,-57.53222 -1.7808,-27.66276 -1.39513,-39.85042 1.67438,-52.91201 2.19347,-9.33381 4.78239,-29.58229 5.75315,-44.99666 1.6356,-25.97112 2.45869,-28.97825 11.22553,-41.01219 5.20328,-7.14234 20.60249,-32.71438 34.22046,-56.82672 34.10546,-60.38802 76.12575,-124.20354 79.53729,-120.79199 0.58536,0.58536 -6.55152,14.32052 -15.85974,30.52254 -32.34231,56.29557 -69.78395,149.5224 -86.46197,215.28381 -12.17414,48.00259 -15.7488,98.43134 -6.97733,98.43134 4.79801,0 8.17586,-9.85244 23.89314,-69.69113 29.48542,-112.25668 55.29955,-175.35694 112.07735,-273.96272 29.15206,-50.62827 35.44417,-63.63961 30.77528,-63.63961 -9.24482,0 115.19533,-121.39202 138.62313,-135.22759 l 11.46056,-6.76818 v 6.8127 c 0,3.74699 -2.54558,20.66804 -5.65685,37.60233 -3.11127,16.93429 -5.65686,37.31072 -5.65686,45.28094 0,95.02323 81.7355,165.67356 192.33305,166.24841 112.74577,0.586 207.22251,-70.19697 242.69664,-181.83086 10.72573,-33.75301 12.89316,-50.94305 12.39261,-98.28785 l -0.48595,-45.96194 13.4126,0.0378 c 17.86443,0.0504 57.24156,14.03642 76.11374,27.03418 8.35168,5.75202 25.18068,21.01807 37.39768,33.92455 25.1095,26.52647 45.0671,61.68978 59.4699,104.78008 17.2661,51.65672 19.661,154.03137 4.008,171.32774 -2.5671,2.83663 -14.9662,11.07626 -27.5535,18.31031 -38.1159,21.90546 -77.19067,54.01458 -162.89328,133.85503 -101.51963,94.57556 -129.87478,117.78082 -168.29141,137.72621 -37.95877,19.7076 -114.50186,43.9066 -181.01934,57.2289 -31.57269,6.3236 -112.86963,17.2917 -126.76798,17.1029 l -8.99652,-0.1221 19.79899,-18.6648 c 36.23119,-34.1557 103.85495,-91.76718 168.25719,-143.34536 76.44257,-61.22096 94.85424,-78.23958 99.33631,-91.82039 3.11925,-9.45141 3.52781,-9.73344 5.67846,-3.91966 4.4423,12.00868 32.1347,5.69337 79.62863,-18.15952 104.60491,-52.53574 189.96183,-125.25311 213.12275,-181.56372 7.6215,-18.53012 8.3725,-30.68668 2.73,-44.19123 -6.0489,-14.47697 -13.23099,-17.09245 -28.44974,-10.36048 -51.90385,22.95954 -165.2351,113.73623 -268.7746,215.2846 -96.13855,94.28975 -147.34165,138.33144 -250.9193,215.82516 -92.00086,68.8323 -128.99861,91.4991 -173.76197,106.4559 -29.86941,9.9803 -55.94712,11.4044 -71.19963,3.8882 z"
       id="path1369"
       transform="matrix(0.26458333,0,0,0.26458333,-154.8532,-107.54718)" /><path
       style="opacity:1;fill:#ffff00;stroke:#000000;stroke-width:2.83288"
       d="m 1139.8561,939.43262 c -39.2627,-12.79424 -61.9963,-42.94258 -62.1488,-82.4192 -0.1215,-31.42754 5.8376,-40.35214 61.9833,-92.82826 70.3772,-65.77745 100.674,-87.26908 144.4153,-102.44393 19.1144,-6.63122 53.3081,-7.15484 59.5711,-0.91223 4.3119,4.29792 3.7763,6.65631 -7.3881,32.52691 -6.6204,15.34115 -14.8118,36.80255 -18.2032,47.692 l -6.166,19.79899 -5.0888,-15.55635 c -12.0145,-36.72857 -15.1951,-28.68678 -15.4551,39.07681 -0.1287,33.533 -1.3574,53.98376 -3.4837,57.98276 -11.3698,21.38357 -68.7534,75.04602 -95.3291,89.14732 -19.2496,10.21399 -37.3507,12.93918 -52.7069,7.93518 z"
       id="path1373"
       transform="matrix(0.26458333,0,0,0.26458333,-154.8532,-107.54718)" /><path
       style="opacity:1;fill:#ffff00;stroke:#000000;stroke-width:2.83288"
       d="m 1581.5864,1010.8178 c -2.8387,-1.6507 -7.6882,-8.9306 -10.7767,-16.17746 -10.506,-24.6514 -38.6964,-46.71399 -91.0163,-71.23192 l -24.9289,-11.68206 13.1064,-14.01177 c 17.139,-18.32302 25.7767,-38.02132 29.6298,-67.57123 4.2541,-32.62562 7.2251,-40.68878 18.7073,-50.77031 11.4676,-10.06864 20.1633,-10.78179 37.1956,-3.05046 35.3133,16.02951 108.1973,83.82748 108.1973,100.64708 0,3.34223 -7.1081,20.55995 -15.7957,38.2616 -18.1299,36.94079 -29.4591,68.64097 -29.4591,82.42941 0,5.24822 -1.5274,11.06952 -3.3941,12.93632 -4.17,4.17 -24.4298,4.3122 -31.4656,0.2208 z"
       id="path1375"
       transform="matrix(0.26458333,0,0,0.26458333,-154.8532,-107.54718)" /><path
       style="opacity:1;fill:#ffff00;stroke:#000000;stroke-width:2.83288"
       d="m 1071.9671,1268.7323 c -16.5371,-2.5978 -44.6271,-16.154 -64.8954,-31.3182 -15.90674,-11.9012 -40.09263,-35.9324 -38.13441,-37.8906 0.69433,-0.6943 29.61979,-4.6039 64.27881,-8.688 69.3971,-8.1775 94.7749,-13.6575 123.4401,-26.6549 56.5683,-25.6493 102.3494,-78.7485 116.078,-134.6331 3.2484,-13.2234 12.6266,-81.3451 12.7603,-92.6885 0.034,-2.86226 20.7629,7.75204 24.5656,12.57868 1.6216,2.05824 3.7053,7.74535 4.6305,12.63802 0.9252,4.89267 6.7688,16.76583 12.9858,26.3848 13.9397,21.5673 16.2208,35.0964 11.8973,70.563 -4.4797,36.7491 -12.952,67.8551 -25.9272,95.1917 -16.3615,34.471 -51.7785,65.8317 -104.1334,92.207 -35.3343,17.8006 -99.7453,28.2482 -137.546,22.3101 z"
       id="path1377"
       transform="matrix(0.26458333,0,0,0.26458333,-154.8532,-107.54718)" /><path
       style="opacity:1;fill:#ffff00;stroke:#000000;stroke-width:2.83288"
       d="m 1098.6909,1592.586 c -62.284,-17.1913 -117.66913,-59.0944 -140.94523,-106.6358 -17.02865,-34.7811 -20.7105,-51.3928 -22.1688,-100.0209 -1.38071,-46.0408 1.57827,-64.1656 8.73509,-53.5057 2.00228,2.9823 6.51198,12.6337 10.02154,21.4475 11.28552,28.3421 33.78888,48.7787 78.0424,70.8747 42.1351,21.0383 86.4787,30.5079 142.499,30.4308 38.4122,-0.053 60.2955,-3.6235 93.6747,-15.2848 37.5992,-13.1356 62.0687,-30.2363 110.6047,-77.297 41.1274,-39.8773 50.6156,-47.4686 50.6156,-40.4963 0,7.4048 -17.6697,69.6863 -25.0201,88.1898 -16.3829,41.2415 -41.2541,76.9292 -78.9134,113.2329 -44.2083,42.6169 -90.1956,63.2371 -156.6398,70.2354 -34.1443,3.5964 -54.4567,3.2591 -70.5057,-1.1706 z"
       id="path1379"
       transform="matrix(0.26458333,0,0,0.26458333,-154.8532,-107.54718)" /><path
       style="opacity:1;fill:#ffff00;stroke:#000000;stroke-width:2.83288"
       d="m 444.06306,1417.9916 c -9.88419,-5.4533 -21.56564,-17.5945 -26.76618,-27.8197 -10.36881,-20.3869 -10.25262,-20.982 7.9077,-40.503 9.93157,-10.6757 17.63184,-21.7944 18.81063,-27.1614 1.09768,-4.9977 0.46752,-26.9115 -1.40035,-48.6975 -3.37005,-39.3066 -3.34779,-39.6622 2.89891,-46.3115 10.56365,-11.2445 40.87816,-21.8398 66.78484,-23.3423 36.59505,-2.1222 53.70648,6.9648 56.81951,30.1742 1.8114,13.505 0.94678,13.7514 -29.59846,8.4321 -25.95317,-4.5195 -27.35464,-1.1672 -8.21541,19.6515 8.62496,9.3818 18.17764,21.9502 21.22817,27.9297 11.54091,22.6221 14.80556,62.4468 5.98987,73.0691 -1.88595,2.2724 -6.51835,4.1317 -10.29421,4.1317 -11.13517,0 -23.69622,7.9542 -45.09803,28.5581 -11.07093,10.6581 -23.56352,20.6842 -27.7613,22.2802 -9.85795,3.748 -24.12651,3.5697 -31.30569,-0.3912 z"
       id="path1381"
       transform="matrix(0.26458333,0,0,0.26458333,-154.8532,-107.54718)" /><path
       style="opacity:1;fill:#ffff00;stroke:#000000;stroke-width:2.83288"
       d="m 388.90873,1197.1911 c 0,-0.7859 4.77297,-4.6436 10.6066,-8.5727 5.83363,-3.9291 24.53419,-19.3468 41.55681,-34.2615 43.34132,-37.9745 47.89913,-39.9144 93.50059,-39.7956 39.77915,0.1035 53.36523,3.604 62.03624,15.9836 5.79185,8.269 5.71336,8.7684 -3.00771,19.1328 -14.18316,16.8557 -30.36564,22.2699 -102.24923,34.2099 -68.65595,11.4038 -102.4433,15.7915 -102.4433,13.3035 z"
       id="path1383"
       transform="matrix(0.26458333,0,0,0.26458333,-154.8532,-107.54718)" /><path
       style="opacity:0.55;fill:#000000;stroke:#000000;stroke-width:2.83288"
       d="m 753.77583,1945.8301 c 0,-5.2298 14.77482,-27.3545 65.67248,-98.3417 43.23814,-60.3046 65.487,-96.2273 77.40455,-124.9763 7.18163,-17.3244 8.18004,-23.1573 7.98833,-46.669 -0.20987,-25.749 -0.81951,-28.2866 -14.61007,-60.8233 -7.91505,-18.6743 -17.04184,-44.074 -20.28178,-56.4437 -22.3773,-85.434 -9.19555,-167.5821 34.60932,-215.6837 18.27441,-20.067 22.41941,-26.5877 28.37865,-44.6444 11.43932,-34.6614 10.88068,-85.476 -1.15374,-104.9481 -4.57289,-7.3991 -9.23999,-10.5217 -20.54462,-13.7459 -23.31111,-6.6485 -74.61286,-15.1424 -144.7352,-23.9634 -116.8092,-14.6939 -135.84967,-14.6243 -153.14343,0.5598 -12.45608,10.9366 -20.66845,26.9729 -22.73083,44.3865 -1.99791,16.8691 6.56968,37.3636 24.06067,57.5555 17.13778,19.7842 18.74964,23.629 13.35648,31.86 -2.47988,3.7848 -5.49591,6.8814 -6.70232,6.8814 -4.40963,0 -26.09502,23.1167 -31.3521,33.4214 -2.97389,5.8293 -6.80118,18.1401 -8.50508,27.3574 -4.68325,25.334 -17.58713,36.7819 -80.85554,71.7321 -38.8737,21.4744 -53.94846,25.1379 -78.04086,18.9657 -49.70856,-12.7348 -90.28489,-54.0424 -108.91192,-110.8749 -7.04392,-21.4915 -8.20869,-29.4601 -8.20869,-56.158 0,-26.8757 0.86903,-32.739 6.38133,-43.0549 10.54457,-19.7334 22.651,-31.2167 51.78655,-49.1211 15.24383,-9.3677 32.44997,-20.7942 38.23589,-25.3923 22.89484,-18.1945 30.36387,-37.9534 17.44042,-46.1377 -17.40068,-11.0195 -44.13189,-7.8078 -104.33858,12.5361 -31.81458,10.7502 -45.42616,13.9912 -58.76053,13.9912 -21.40076,0 -44.56291,-7.8052 -65.10304,-21.9384 -29.93376,-20.5967 -60.62465,-66.5108 -64.03789,-95.8019 -1.52852,-13.117 -1.38067,-13.5088 3.06619,-8.1247 2.56968,3.1112 8.9629,14.0973 14.20715,24.4133 9.61542,18.9147 16.48725,27.9126 21.3174,27.9126 1.44452,0 2.62639,-1.9092 2.62639,-4.2427 0,-9.7842 6.40607,-2.9152 15.16739,16.2635 10.89071,23.8399 27.28194,40.406 42.87372,43.3311 5.66245,1.0622 19.4209,1.2969 30.57435,0.5215 48.48669,-3.371 105.83073,-34.1726 210.595,-113.1184 106.40373,-80.18127 179.95531,-143.69408 259.4039,-223.99881 58.69609,-59.3286 102.12059,-97.54102 165.46299,-145.60304 39.56667,-30.02183 59.37773,-43.63412 61.05833,-41.95352 0.69511,0.69508 -3.15412,8.60054 -8.55382,17.56761 -5.39969,8.9671 -11.35053,23.15351 -13.22405,31.52534 -3.05038,13.63044 -2.87035,15.81393 1.72234,20.88878 9.46423,10.45786 23.22914,5.77952 42.9924,-14.61199 14.12308,-14.57209 23.33727,-33.63173 23.42292,-48.45059 0.0667,-11.55011 -6.0943,-26.189 -11.82625,-28.09966 -1.93716,-0.64573 -0.55081,-1.95105 3.08075,-2.90072 4.73597,-1.23849 8.51388,0.18441 13.36202,5.03259 24.0699,24.06983 -18.48671,93.83346 -90.82144,148.88498 -61.27137,46.63157 -157.25529,98.54769 -182.19763,98.54769 -6.88049,0 -8.7212,-1.21269 -8.7212,-5.74561 0,-3.16012 -1.97034,-6.50173 -4.37852,-7.42584 -5.31388,-2.03912 -12.37666,6.49297 -12.5021,15.10298 -0.11936,8.20103 -31.81022,36.70589 -103.32753,92.94 -31.1127,24.46394 -69.93286,56.02149 -86.26703,70.12793 -44.44924,38.38698 -110.42669,98.86908 -109.19545,100.10028 2.32279,2.3228 114.01339,-11.0281 146.74791,-17.5415 75.31027,-14.9849 144.90966,-36.0988 186.19779,-56.4856 42.13304,-20.804 70.85558,-43.81118 159.26537,-127.57417 93.73778,-88.81097 147.45113,-133.0237 183.36143,-150.92911 29.8279,-14.87266 31.5857,-18.86926 32.8425,-74.66957 1.1132,-49.42298 -2.031,-77.88951 -12.6508,-114.53603 -26.9264,-92.91748 -89.1082,-157.83797 -164.71261,-171.96712 -12.99161,-2.4279 -26.84044,-3.60636 -30.77515,-2.61881 -7.05291,1.77017 -7.12778,2.08327 -5.29849,22.15501 4.98759,54.72559 5.02518,60.62029 0.55092,86.39275 -8.8084,50.73791 -34.07672,104.38364 -65.13421,138.28285 -66.46676,72.54839 -165.58376,99.88126 -253.61838,69.93874 -29.41715,-10.00539 -49.67188,-22.64077 -72.08445,-44.96783 -39.65149,-39.50026 -52.19557,-88.53048 -37.90296,-148.14897 6.61315,-27.58539 7.34548,-47.35036 1.83276,-49.4658 -12.69514,-4.87157 -47.63218,23.99946 -126.30338,104.37369 -80.79492,82.54394 -125.63952,141.33152 -166.99871,218.92162 -19.64319,36.85072 -38.5643,67.88225 -41.39045,67.88225 -5.88602,0 13.97965,-49.50715 49.9382,-124.4508 34.07084,-71.0093 46.88832,-107.56666 51.07171,-145.66399 6.9655,-63.43356 46.19033,-144.26877 90.52626,-186.55808 26.75048,-25.51564 62.88573,-39.3051 129.70135,-49.49498 20.84228,-3.17859 39.61597,-7.20749 41.7193,-8.95311 C 522.85633,313.41425 470.99715,275.54109 383.25188,241.06999 314.21065,213.94687 239.75307,193.76466 145.664,176.67028 74.273701,163.69987 31.596014,153.62327 12.727922,145.28282 c -11.80430025,-5.21798 -12.3174236,-5.8701 -7.0710678,-8.9865 3.7966097,-2.25524 21.0038718,-3.29251 52.3259018,-3.15427 39.04113,0.17231 52.454534,1.42427 82.065724,7.65973 97.01478,20.42917 209.30984,62.80673 292.32972,110.31848 18.87175,10.80018 60.31542,37.52344 92.09704,59.38501 31.78162,21.86156 59.245,39.74828 61.02971,39.74828 1.78471,0 17.14731,-5.86028 34.13909,-13.02287 50.90642,-21.45863 76.5979,-27.91929 117.75149,-29.61106 l 35.94558,-1.47765 -32.40001,-34.1587 C 657.19559,183.69202 582.48509,139.07411 387.49452,60.901184 297.58538,24.856059 258.80108,7.5309189 258.80108,3.4131985 c 0,-3.98495978 37.02604,-0.7418271 74.63591,6.5374024 54.03357,10.4579691 96.62606,24.2978051 138.91034,45.1369741 86.97563,42.864638 160.21654,96.576485 253.20063,185.686865 87.81519,84.1568 142.71541,118.12776 200.76192,124.22675 23.54799,2.4742 56.60557,14.51408 85.30952,31.07047 39.1426,22.57747 51.6303,24.77493 63.1829,11.11833 l 5.6569,-6.68709 0.1858,14.70901 c 0.2087,16.51824 9.22,46.0804 21.5845,70.80996 16.0857,32.17214 24.8986,64.96467 24.8986,92.64654 0,13.86043 1.067,25.20078 2.3712,25.20078 5.2756,0 65.2111,-65.06989 78.1575,-84.85281 50.2681,-76.81264 93.8281,-193.45599 103.5559,-277.2977 5.4609,-47.06605 -1.0605,-75.2358 -18.9958,-82.05483 -11.7434,-4.46482 -27.7546,5.25612 -61.8052,37.52404 -42.2678,40.0549 -82.0707,87.14221 -113.7492,134.56659 -14.8522,22.23457 -27.6135,39.81695 -28.3584,39.072 -2.1341,-2.13405 11.8712,-30.97866 28.0675,-57.8064 24.4012,-40.41811 63.6739,-90.56232 95.6294,-122.10125 31.695,-31.28189 52.2561,-45.55464 73.8431,-51.25929 11.6139,-3.06913 14.1067,-2.8418 22.6274,2.06351 16.2908,9.3786 20.9146,22.87656 20.7277,60.50949 -0.1895,38.19567 -4.2746,59.4707 -25.7964,134.35029 -15.4769,53.84802 -21.3936,86.26702 -15.7443,86.26702 3.6122,0 35.3072,-22.73882 72.8149,-52.23943 69.8378,-54.92882 150.8794,-99.00459 229.1026,-124.60121 84.9668,-27.80325 142.1578,-27.27562 169.7902,1.56644 7.4722,7.79919 7.7483,9.08227 6.1961,28.78612 -2.7541,34.9612 -21.9643,73.76625 -71.1178,143.65966 -32.4341,46.11957 -42.9289,64.48514 -39.0599,68.35412 4.2491,4.24908 22.8357,7.87063 40.7804,7.94592 37.1266,0.15585 52.9314,17.87235 44.8901,50.31987 -11.9184,48.09206 -77.4416,112.16609 -147.7751,144.50652 -31.3032,14.39367 -56.0299,30.21886 -56.0299,35.85931 0,5.2107 25.9987,31.2938 71.3182,71.5497 48.2089,42.82245 72.8974,73.41768 72.9195,90.36559 0.025,19.03201 -23.9931,74.75954 -47.5703,110.37484 l -10.4003,15.7106 -0.8752,-11.9342 c -1.2603,-17.18467 5.4688,-37.36091 26.3384,-78.97191 21.1701,-42.21012 22.4753,-50.72671 10.3246,-67.3711 -10.7261,-14.69306 -49.6226,-51.51143 -71.7419,-67.9089 -23.4149,-17.35805 -37.5455,-23.59454 -53.6315,-23.67014 -24.6709,-0.11597 -37.7186,18.61532 -40.9687,58.81462 -2.2665,28.03257 -9.6148,47.60617 -24.0132,63.96364 -11.1958,12.71915 -26.8478,23.37044 -29.8828,20.33548 -0.8201,-0.82007 -0.6694,-4.76468 0.3348,-8.7658 1.8244,-7.26911 5.2129,-11.30409 19.7607,-23.53104 10.7578,-9.04158 8.9245,-17.47434 -5.3509,-24.61199 -9.9826,-4.99135 -16.9705,-5.65685 -59.3969,-5.65685 -53.9105,0 -70.3382,3.53678 -87.8518,18.91389 -13.8614,12.1705 -15.5114,30.3088 -5.2012,57.17663 1.5561,4.05528 0.2678,4.4488 -9.4671,2.89209 -10.7795,-1.7237 -11.4076,-1.40245 -14.4782,7.40598 -1.7654,5.06433 -3.2195,18.24568 -3.2312,29.29187 -0.043,40.00063 -9.7159,79.20423 -27.6374,112.00793 -13.7088,25.0926 -47.3185,58.2253 -74.1647,73.1122 -40.043,22.2049 -77.7874,31.4342 -151.4679,37.0371 -49.9172,3.7959 -66.32095,7.439 -66.32095,14.729 0,6.5886 36.3516,43.0989 55.61695,55.8597 15.6396,10.3593 39.0377,19.4519 60.3486,23.4519 22.7724,4.2743 76.5407,1.0703 101.8233,-6.0675 48.8381,-13.7879 111.558,-53.5289 136.3572,-86.3995 25.0969,-33.2652 44.6424,-110.8226 41.0687,-162.962 -1.6439,-23.98474 -4.1583,-30.2404 -17.5291,-43.61111 -9.4167,-9.41676 -14.0855,-19.99839 -9.9511,-22.55365 1.2851,-0.79419 4.8693,1.77597 7.9649,5.71147 3.3683,4.2821 6.08,5.80094 6.7529,3.78232 1.6672,-5.00151 43.7846,37.84747 64.3656,65.48367 42.4441,56.9938 48.6957,93.8654 48.3911,285.4107 -0.1912,120.2206 -2.0268,149.3875 -11.8284,187.9403 -15.6164,61.4245 -40.6233,107.1452 -82.4087,150.6699 -53.6065,55.8377 -119.3078,85.4294 -202.8236,91.351 -49.1514,3.4851 -78.3541,13.8889 -122.9778,43.8124 -10.7069,7.1797 -19.939,12.5821 -20.5158,12.0053 -0.5769,-0.5769 7.003,-8.1179 16.844,-16.7578 9.841,-8.64 21.5824,-21.033 26.0918,-27.5402 l 8.199,-11.8312 -6.8663,-5.1793 c -11.2689,-8.5001 -105.05943,-61.3224 -117.05991,-65.9273 -5.21127,-1.9998 -10.50622,7.5635 -33.95264,61.3221 -19.89077,45.6062 -47.76305,94.4341 -84.88342,148.7025 -16.41545,23.9987 -29.33814,44.1421 -28.7171,44.7632 0.62106,0.621 21.92724,-10.2641 47.34705,-24.1891 56.87726,-31.1576 87.41989,-46.5764 89.0442,-44.952 2.85535,2.8553 -66.86832,43.1875 -120.30531,69.5915 -41.32895,20.4212 -51.21444,23.4471 -51.21444,15.6764 z m 460.25327,-353.1047 c 54.0368,-13.5835 92.6207,-36.5144 131.7863,-78.3225 38.0765,-40.6455 61.7384,-83.8023 79.7437,-145.4442 10.0783,-34.5033 12.1814,-54.444 5.9926,-56.8188 -7.1372,-2.7389 -16.7315,5.007 -54.7567,44.2077 -59.7671,61.6146 -104.6011,85.2998 -176.5577,93.2735 -75.2947,8.3434 -169.0007,-19.4505 -217.30222,-64.4537 -11.08152,-10.3248 -16.44154,-18.4776 -23.47224,-35.7022 -10.1648,-24.9029 -16.25458,-31.1439 -23.40849,-23.99 -10.23299,10.233 -12.64318,50.9515 -5.58739,94.3952 7.78805,47.9524 23.49979,82.1579 51.24969,111.5743 28.47565,30.1856 69.08745,54.4506 109.40055,65.3652 28.9869,7.848 82.5195,6.0691 122.9119,-4.0845 z M 486.24096,1420.0565 c 6.35921,-3.7868 17.15373,-13.4622 23.98781,-21.501 14.83937,-17.4552 26.88018,-25.3292 38.75482,-25.3436 15.49961,-0.02 19.57481,-8.0254 19.23565,-37.7929 -0.40661,-35.6899 -7.71747,-54.6156 -28.97735,-75.0139 l -15.8582,-15.2157 9.83716,2.4442 c 5.41044,1.3443 16.83751,2.4638 25.39351,2.4877 l 15.55635,0.044 0.87358,-10.5354 c 3.58619,-43.2484 -54.6507,-57.1651 -117.04127,-27.969 -26.45717,12.3808 -25.77656,9.374 -19.32271,85.3656 2.14887,25.3021 -1.29599,34.278 -18.4448,48.0591 -15.79922,12.6966 -18.93018,21.7256 -13.28201,38.3021 5.5132,16.1803 16.43871,30.9287 28.24479,38.1276 13.08269,7.9775 36.3114,7.3138 51.04267,-1.4583 z m -105.80674,-0.8932 c 0.006,-1.1667 1.83096,-13.3348 4.05566,-27.0402 4.34916,-26.7933 14.81926,-51.6481 30.4104,-72.1908 8.09037,-10.6598 9.2741,-14.3505 9.08425,-28.3238 -0.39722,-29.2355 -19.9505,-62.2913 -39.79266,-67.2713 -17.46364,-4.3831 -49.73981,15.2505 -60.03619,36.52 -15.14501,31.2854 -3.95875,73.2911 36.12818,135.6652 14.31942,22.2806 20.11911,28.7972 20.15036,22.6409 z m 237.4776,-127.8004 c 6.21776,-11.618 -0.4201,-25.6418 -12.13698,-25.6418 -12.77917,0 -21.42754,18.9448 -12.65367,27.7186 5.52706,5.5271 21.43438,4.1945 24.79065,-2.0768 z m -157.71705,-96.4812 c 87.73933,-12.2902 110.88806,-17.8033 128.58623,-30.6238 43.74366,-31.6877 -10e-4,-64.7262 -74.91686,-56.5811 -29.52649,3.2103 -46.15891,11.9356 -75.56759,39.6424 -30.07634,28.336 -43.78097,39.1573 -59.99442,47.3724 -13.05274,6.6136 -15.60158,11.6326 -5.90743,11.6326 3.36235,0 42.8724,-5.1491 87.80007,-11.4425 z M 1197.8389,937.09996 c 14.1817,-6.88558 26.8796,-17.26217 55.5431,-45.38924 45.6115,-44.75813 45.1084,-43.51238 44.2851,-109.65062 l -0.5808,-46.66905 5.8192,18.38478 c 6.8483,21.63639 10.6478,27.56175 14.1415,22.05418 1.2802,-2.01817 2.3471,-7.03552 2.3709,-11.14963 0.065,-11.25723 10.5672,-43.05081 22.9551,-69.49418 6.0661,-12.9489 11.0294,-26.6683 11.0294,-30.48755 0,-18.40602 -42.3013,-20.80741 -83.4386,-4.73669 -32.8636,12.83849 -69.9251,38.11198 -105.0039,71.60577 -16.9183,16.15391 -41.7511,39.20098 -55.184,51.21571 -27.918,24.97071 -36.3616,39.42853 -38.5153,65.94897 -3.499,43.08718 24.3659,85.35675 63.5008,96.32731 19.3088,5.41279 41.2333,2.64617 63.0775,-7.95976 z m 253.1442,-112.23823 c 6.2226,-2.83658 15.4029,-8.60943 20.4008,-12.82859 8.9505,-7.55595 47.6268,-57.31632 50.6279,-65.13732 2.6096,-6.8003 -61.7048,-55.36838 -88.6869,-66.97336 -18.5314,-7.9704 -39.4031,-7.81206 -54.0321,0.40986 -19.4375,10.92452 -37.3272,36.97083 -44.4266,64.68254 -9.8195,38.32909 6.0043,67.76767 43.6591,81.22363 15.8646,5.66922 58.7904,4.85358 72.4578,-1.37676 z M 772.1606,806.55532 c 42.55168,-17.56866 56.88844,-30.61653 50.07411,-45.57238 -4.69307,-10.30014 -17.62769,-16.0856 -28.79941,-12.88159 -20.89554,5.99276 -50.5895,30.79886 -56.97638,47.59759 -4.08286,10.73875 -0.88473,20.31326 6.76419,20.25052 3.47053,-0.0286 16.49242,-4.25582 28.93749,-9.39414 z m 93.49146,-47.38005 c 18.37541,-11.48427 48.36737,-40.85584 55.21932,-54.07713 6.58291,-12.70212 6.94917,-24.27441 1.03549,-32.71735 -3.51641,-5.0204 -7.15354,-6.2862 -18.06248,-6.2862 -11.27349,0 -16.68099,2.01771 -30.95764,11.55127 -37.01107,24.71505 -53.70213,57.86017 -41.25654,81.92728 5.73636,11.0929 15.82476,10.97492 34.02185,-0.39787 z m 297.85044,-40.23658 c 33.9561,-32.92544 52.9337,-47.78801 79.5912,-62.3328 59.7085,-32.57802 127.161,-23.52159 240.4431,32.28285 l 49.7905,24.52747 46.5091,-26.79691 c 65.3159,-37.63274 91.5008,-55.54494 115.0281,-78.6871 22.3167,-21.95131 31.7321,-38.72878 31.8281,-56.71458 0.081,-15.12122 -6.984,-23.94057 -25.997,-32.45382 -13.3079,-5.95876 -19.154,-6.70216 -53.1368,-6.75694 -29.4638,-0.0475 -41.6461,1.10523 -53.3449,5.04766 -8.3387,2.8101 -15.7261,4.54432 -16.4166,3.85385 -0.6905,-0.69048 11.2232,-13.12795 26.4749,-27.63883 96.807,-92.10518 127.2541,-132.74716 136.3633,-182.02339 6.9479,-37.58484 0.677,-59.58312 -19.2589,-67.55988 -27.6574,-11.06631 -83.8738,-1.28556 -158.3791,27.55546 -63.2102,24.46863 -154.0504,79.00396 -222.323,133.47007 -97.039,77.41516 -189.6504,192.61872 -206.2153,256.52052 -5.9651,23.01124 -9.3497,86.88665 -4.604,86.88665 1.9545,0 17.0958,-13.13114 33.6473,-29.18028 z M 756.56418,401.75214 c 15.08111,-5.44139 27.53572,-16.44227 32.95329,-29.10687 5.21806,-12.19818 0.50799,-23.72207 -15.65814,-38.31 -19.9511,-18.00341 -30.36871,-19.87609 -52.61041,-9.45727 -26.39081,12.36241 -55.15433,43.99265 -55.15433,60.65124 0,19.77489 53.85806,29.43267 90.46959,16.2229 z"
       id="path1385"
       transform="matrix(0.26458333,0,0,0.26458333,-154.8532,-107.54718)" /><path
       style="opacity:1;fill:#000000;stroke:#000000;stroke-width:2.83288"
       d="m 753.77583,1946.2029 c 0,-5.449 19.03475,-34.0279 68.82932,-103.3407 40.67388,-56.6172 62.54388,-92.0826 74.2147,-120.3501 6.93627,-16.8001 8.17617,-23.6547 8.18598,-45.2548 0.0113,-24.211 -0.70702,-27.2053 -14.68352,-61.2298 -8.08229,-19.6756 -17.29804,-45.7117 -20.47943,-57.8578 -22.32107,-85.2194 -8.92666,-167.787 34.92299,-215.2773 22.73204,-24.6194 31.35461,-44.2038 35.36772,-80.3305 4.54461,-40.9111 -3.98316,-73.3955 -21.15075,-80.5686 -31.05709,-12.9765 -245.0924,-40.9339 -279.99491,-36.5731 -25.04564,3.1292 -44.85501,25.5356 -48.30122,54.6335 -2.05986,17.3923 6.29656,37.5976 24.00345,58.0387 17.13778,19.7842 18.74964,23.629 13.35648,31.86 -2.47988,3.7848 -5.50115,6.8814 -6.71392,6.8814 -4.17207,0 -26.53594,24.0551 -31.63833,34.0309 -2.81007,5.4941 -6.5049,17.5391 -8.21073,26.7668 -4.04708,21.8926 -14.67693,32.9606 -54.38121,56.6226 -61.44169,36.6166 -76.00017,41.3606 -104.51171,34.0563 -25.76318,-6.6003 -43.96643,-17.5192 -66.27417,-39.7537 -34.22983,-34.1174 -54.07492,-85.5618 -51.73957,-134.1243 1.97297,-41.0265 16.17569,-60.1827 67.27292,-90.7356 45.05814,-26.942 65.14614,-54.9277 47.4644,-66.1253 -17.40068,-11.0195 -44.13189,-7.8078 -104.33858,12.5361 -31.81458,10.7502 -45.42616,13.9912 -58.76053,13.9912 -21.40076,0 -44.56291,-7.8052 -65.10304,-21.9384 -29.93376,-20.5967 -60.62465,-66.5108 -64.03789,-95.8019 -1.52852,-13.117 -1.38067,-13.5088 3.06619,-8.1247 2.56968,3.1112 8.9629,14.0973 14.20715,24.4133 9.61542,18.9147 16.48725,27.9126 21.3174,27.9126 1.44452,0 2.62639,-1.9092 2.62639,-4.2427 0,-9.7842 6.40607,-2.9152 15.16739,16.2635 10.89071,23.8399 27.28194,40.406 42.87372,43.3311 14.99614,2.8133 48.67657,-0.1754 64.99547,-5.7674 46.2923,-15.8631 91.62308,-43.5562 178.46134,-109.0239 108.05813,-81.46546 197.40701,-158.61712 257.11644,-222.01685 38.81807,-41.21717 96.30845,-92.30781 152.73507,-135.73277 42.34118,-32.58506 72.01933,-53.3783 73.73621,-51.66139 0.72264,0.72264 -3.10408,8.65058 -8.50378,17.61765 -5.39969,8.9671 -11.35053,23.15351 -13.22405,31.52534 -3.05038,13.63044 -2.87035,15.81393 1.72234,20.88878 9.46423,10.45786 23.22914,5.77952 42.9924,-14.61199 14.12308,-14.57209 23.33727,-33.63173 23.42292,-48.45059 0.0687,-11.90488 -6.65473,-27.33763 -12.03134,-27.616 -1.90461,-0.0987 -0.28115,-1.44801 3.60771,-2.9987 6.00905,-2.3961 8.0262,-1.70851 13.43505,4.57965 22.1547,25.75642 -15.97472,90.05421 -85.55949,144.2792 -63.33018,49.35102 -160.80666,103.01935 -187.38329,103.16897 -7.37111,0.0416 -9.19239,-1.08662 -9.19239,-5.69385 0,-3.16012 -1.97034,-6.50173 -4.37852,-7.42584 -5.29388,-2.03143 -12.37604,6.48157 -12.5021,15.02795 -0.12049,8.1645 -28.95288,34.55885 -90.59961,82.93833 -27.22361,21.36472 -62.86179,49.9754 -79.19596,63.57928 -37.50458,31.23563 -130.40333,115.31673 -128.98128,116.73883 2.41547,2.4154 114.87159,-11.2094 148.19863,-17.9553 80.39369,-16.2729 144.79134,-36.2095 187.70294,-58.11 43.43217,-22.16614 67.3201,-41.66252 172.4621,-140.75669 82.40738,-77.66725 131.62277,-117.64042 167.09577,-135.71681 30.2157,-15.39731 31.7026,-18.85913 32.9137,-76.62936 0.7164,-34.16774 -0.2585,-53.8446 -3.6382,-73.42852 C 1096.141,502.26456 1047.8648,428.24839 984.29264,397.2585 959.98972,385.41144 919.74018,375.79111 907.41723,378.88396 l -7.35648,1.84637 2.41649,21.76687 c 4.20559,37.88254 2.51281,81.55696 -4.12248,106.36068 -6.91851,25.86252 -21.22978,60.12116 -34.74964,83.18436 -14.18823,24.20338 -58.92091,67.34832 -85.21923,82.19446 -47.38662,26.75109 -101.26824,38.27687 -149.14206,31.90293 -49.73096,-6.62124 -85.5677,-23.52083 -117.51523,-55.41692 -39.83716,-39.77298 -52.2815,-88.35667 -37.94723,-148.14897 6.4588,-26.94148 7.334,-47.52422 2.10149,-49.42227 -5.56713,-2.01947 -21.714,5.63593 -35.84437,16.99418 -21.6651,17.41483 -109.28505,104.78206 -140.65202,140.24637 -54.49351,61.61172 -84.79437,105.66037 -129.20278,187.82326 -9.07088,16.78265 -19.66913,34.33224 -23.55168,38.99915 l -7.05918,8.48528 1.95357,-9.63611 c 3.1491,-15.53324 19.56401,-54.188 49.35711,-116.2289 33.19316,-69.12116 46.93464,-108.39921 51.15034,-146.20598 9.38468,-84.16253 69.2332,-184.79967 124.90881,-210.03806 26.68847,-12.09817 53.27243,-19.23056 95.21645,-25.54627 20.84228,-3.13831 39.61597,-7.13423 41.7193,-8.87985 20.60141,-17.09767 -40.82699,-58.77968 -140.74157,-95.49967 -68.5264,-25.18439 -126.56205,-40.37239 -217.6374,-56.95598 -71.111332,-12.9484 -113.861381,-23.06704 -132.771518,-31.42607 -11.80430025,-5.21798 -12.3174236,-5.8701 -7.0710678,-8.9865 9.0793708,-5.39326 90.8703518,-4.1562 121.6223658,1.83951 65.15487,12.7032 134.17645,34.18509 203.47416,63.32816 72.13858,30.3378 116.82666,55.62909 200.44387,113.44157 l 53.1931,36.77742 33.34362,-13.79967 c 53.26104,-22.04272 78.39444,-28.45723 119.78395,-30.57108 l 36.06801,-1.8421 -41.38563,-41.79731 C 648.14069,178.77705 576.61257,136.7421 386.46751,60.495952 297.52225,24.829848 258.80108,7.5172683 258.80108,3.4151501 c 0,-4.21512571 41.05004,-0.3007766 79.65205,7.5952639 57.06371,11.672379 94.4037,24.076869 136.72263,45.419762 87.78623,44.273624 157.38584,95.359414 247.59666,181.734714 61.90796,59.27582 94.84106,84.8961 135.50576,105.41665 26.64879,13.44776 38.10332,17.03992 68.0317,21.33489 29.92598,4.29462 57.94404,14.61499 87.75032,32.32258 23.7673,14.11988 41.2354,20.63126 49.1929,18.33695 3.2408,-0.9344 8.8539,-5.08939 12.4735,-9.23331 l 6.5811,-7.53443 -1.8279,9.06378 c -2.3695,11.74997 4.5486,38.54307 17.3783,67.30376 5.5515,12.44508 14.397,34.71894 19.6566,49.49747 8.225,23.1108 9.5664,30.53038 9.5882,53.03301 0.014,14.38962 1.0532,26.16295 2.3096,26.16295 5.1916,0 62.9714,-62.43691 76.5388,-82.70782 43.1873,-64.52595 85.0989,-168.15706 101.1814,-250.1829 2.6913,-13.72645 4.9671,-38.87038 5.0703,-56.01801 0.1593,-26.47857 -0.6766,-32.58719 -5.6124,-41.01219 -7.5436,-12.87649 -17.9064,-18.03354 -28.2982,-14.0826 -31.0152,11.792 -117.0053,103.81225 -164.434,175.96516 -13.2084,20.094 -24.6664,35.88352 -25.4621,35.08786 -2.2108,-2.21093 11.4931,-30.59841 27.8197,-57.62793 23.2217,-38.4447 63.3425,-90.32789 92.7393,-119.92807 65.2932,-65.74496 108.139,-72.99118 119.1426,-20.14981 6.8781,33.0302 -0.7636,81.92783 -26.8528,171.82386 -13.4821,46.4555 -18.9614,77.81311 -13.5967,77.81311 3.6214,0 35.2815,-22.71071 72.825,-52.23943 70.9021,-55.76592 149.7201,-98.63325 229.1026,-124.60374 84.9338,-27.78661 142.1607,-27.2701 169.755,1.53215 7.4011,7.72513 7.7122,9.14598 6.3029,28.78613 -2.484,34.61936 -20.4932,71.10418 -70.4537,142.73254 -34.3971,49.3151 -43.6718,65.44191 -39.8399,69.27381 4.3123,4.31225 22.8432,7.91484 41.0997,7.99016 38.2885,0.15811 53.6078,19.29763 43.4402,54.27311 -9.1212,31.3756 -41.6385,71.43068 -83.5547,102.92326 -13.3777,10.05093 -42.082,27.27184 -63.7874,38.26871 -43.9263,22.255 -55.288,29.46081 -55.288,35.06503 0,4.96106 24.0373,29.17339 67.9151,68.40986 52.3261,46.79104 76.3347,76.15085 76.3347,93.34859 0,19.58222 -21.6538,70.39967 -46.1587,108.32568 l -11.824,18.29999 -0.8752,-12.0481 c -1.2598,-17.34221 5.8789,-38.8918 26.5472,-80.13751 11.554,-23.05725 18.1686,-39.72169 18.1686,-45.77291 0,-12.34482 -9.8842,-25.80626 -39.1032,-53.25504 -47.4706,-44.59471 -76.2054,-61.28303 -100.0205,-58.08877 -21.1186,2.83261 -32.2783,21.06972 -35.2327,57.57696 -2.3045,28.47661 -9.5902,47.99043 -24.0517,64.41958 -11.1958,12.71915 -26.8478,23.37044 -29.8828,20.33548 -0.8201,-0.82007 -0.6694,-4.76468 0.3348,-8.7658 1.8244,-7.26911 5.2129,-11.30409 19.7607,-23.53104 10.7578,-9.04158 8.9245,-17.47434 -5.3509,-24.61199 -10.0485,-5.02427 -16.8488,-5.64573 -60.8111,-5.55737 -44.7055,0.0899 -51.0607,0.72141 -65.6436,6.52325 -16.8843,6.71749 -29.2624,18.4827 -32.3379,30.73663 -1.6671,6.64217 1.496,26.24212 6.1952,38.38824 1.7319,4.47646 0.6949,4.83641 -9.3196,3.23501 -10.7795,-1.7237 -11.4076,-1.40245 -14.4782,7.40598 -1.7654,5.06433 -3.2195,18.24568 -3.2312,29.29187 -0.1075,100.96403 -55.2891,176.16323 -151.2995,206.18463 -26.3774,8.2479 -50.8992,12.0889 -101.9705,15.9726 -49.15418,3.7379 -66.32095,7.4754 -66.32095,14.4395 0,7.0315 36.66615,43.241 57.44415,56.7286 29.3327,19.0409 48.2342,23.7466 95.2909,23.7233 34.1004,-0.017 44.8256,-1.1043 63.6396,-6.4527 50.0466,-14.2273 112.4341,-53.5057 137.466,-86.5471 25.2405,-33.3166 44.9506,-111.101 41.3741,-163.28 -1.6439,-23.98474 -4.1583,-30.2404 -17.5291,-43.61111 -9.4167,-9.41676 -14.0855,-19.99839 -9.9511,-22.55365 1.2851,-0.79419 4.8693,1.77597 7.9649,5.71147 3.6113,4.59099 6.052,5.88505 6.8101,3.61072 1.6956,-5.08676 43.133,37.24547 64.3551,65.74477 42.7079,57.3529 48.7128,92.5461 48.4042,283.6856 -0.196,121.424 -2.0409,150.8432 -11.8882,189.5759 -15.6854,61.6961 -41.1339,108.1563 -82.7124,151.0045 -54.331,55.9902 -119.1076,85.1021 -202.5199,91.0164 -49.1514,3.4851 -78.3541,13.8889 -122.9778,43.8124 -10.7069,7.1797 -19.9833,12.5378 -20.6143,11.9069 -0.6309,-0.631 5.9853,-7.305 14.7027,-14.831 15.4132,-13.3068 35.3929,-36.4676 35.3929,-41.028 0,-4.7684 -116.409,-70.3508 -124.87289,-70.3508 -4.7026,0 -8.03718,6.3164 -29.76074,56.3735 -19.89386,45.841 -49.91699,98.5566 -86.98067,152.7235 -16.42108,23.9987 -29.34841,44.1421 -28.72737,44.7632 0.62106,0.621 21.92724,-10.2641 47.34705,-24.1891 56.87726,-31.1576 87.41989,-46.5764 89.0442,-44.952 2.68056,2.6805 -64.7546,41.9685 -117.00403,68.167 -41.5876,20.8525 -54.51572,24.9963 -54.51572,17.4737 z m 455.37677,-352.2176 c 55.8069,-13.8734 90.6655,-33.5016 130.3009,-73.37 42.4912,-42.7408 66.6096,-85.7751 86.3113,-154.0041 10.586,-36.6603 12.1064,-52.0463 5.3975,-54.6208 -6.6597,-2.5555 -15.9618,5.0421 -54.0776,44.1684 -60.3808,61.9815 -104.8627,85.4855 -176.8887,93.4668 -64.0286,7.0952 -141.6921,-11.4927 -194.3873,-46.5244 -25.75002,-17.1186 -40.25182,-33.803 -46.43767,-53.4268 -6.54626,-20.767 -13.9457,-29.8816 -20.86313,-25.6989 -11.66489,7.0533 -15.15907,47.943 -8.07372,94.4807 11.81774,77.6208 47.5679,126.0287 119.98872,162.4722 34.4812,17.3516 55.1208,21.615 97.9185,20.2265 24.359,-0.7903 44.8842,-3.2102 60.8112,-7.1696 z M 483.6297,1421.2998 c 6.40978,-3.1029 17.81881,-12.7822 25.35337,-21.5094 16.1596,-18.7176 27.96828,-26.5639 40.00052,-26.5785 5.03913,-0.01 10.84625,-2.3224 13.6843,-5.4584 11.63089,-12.852 6.89095,-63.6448 -8.36929,-89.6844 -3.80978,-6.5008 -12.35222,-16.4733 -18.98321,-22.1609 l -12.05637,-10.3412 9.89949,2.2554 c 5.44472,1.2405 16.89985,2.275 25.45585,2.2989 l 15.55635,0.044 0.87358,-10.5354 c 3.57183,-43.075 -54.90087,-57.048 -117.04127,-27.969 -26.34335,12.3276 -26.05901,11.0851 -19.31338,84.3903 2.30678,25.0679 -0.85599,33.8414 -17.47193,48.4673 -17.43556,15.3474 -19.88014,22.0654 -14.22489,39.0918 5.5636,16.7504 19.39172,34.1808 31.19367,39.3198 12.70835,5.5336 32.08067,4.8389 45.44321,-1.6298 z m -99.37512,-27.5975 c 4.68472,-29.1034 12.60347,-48.6374 28.92816,-71.3602 9.78283,-13.617 10.98709,-17.0959 10.79563,-31.1869 -0.23137,-17.0277 -10.6867,-44.2317 -21.37032,-55.6039 -14.05805,-14.9641 -32.21423,-15.2567 -53.93531,-0.8693 -35.71455,23.6564 -40.23565,65.7655 -12.87947,119.9578 9.24938,18.3229 41.61083,67.7786 43.26722,66.1222 0.54953,-0.5496 2.88689,-12.7264 5.19409,-27.0597 z m 233.65724,-102.3394 c 6.21776,-11.618 -0.4201,-25.6418 -12.13698,-25.6418 -12.77917,0 -21.42754,18.9448 -12.65367,27.7186 5.52706,5.5271 21.43438,4.1945 24.79065,-2.0768 z m -157.12877,-96.5621 c 45.25121,-6.3379 89.91171,-14.0608 99.24552,-17.162 47.06353,-15.637 60.91535,-46.0279 28.19789,-61.8661 -26.59375,-12.8738 -82.90742,-12.0318 -110.88848,1.6581 -8.35487,4.0876 -26.26,17.8576 -39.78916,30.6 -29.34549,27.6389 -43.12859,38.494 -59.24669,46.6608 -13.05274,6.6136 -15.60158,11.6326 -5.90743,11.6326 3.36235,0 43.13711,-5.1856 88.38835,-11.5234 z M 1180.611,943.57867 c 25.1757,-7.83556 40.2452,-18.80086 77.0259,-56.04811 23.2571,-23.55208 34.0526,-36.66838 36.7574,-44.65928 2.7302,-8.06577 3.669,-25.11739 3.2703,-59.39697 l -0.5592,-48.08326 5.8096,18.38478 c 6.8356,21.63133 10.637,27.56378 14.132,22.05418 1.2802,-2.01817 2.3471,-7.30003 2.3709,-11.73749 0.058,-10.67842 14.6727,-53.92343 25.4192,-75.2121 11.778,-23.33212 11.3808,-30.38336 -2.0272,-35.98556 -16.7589,-7.00234 -45.1984,-3.90366 -74.6817,8.1371 -34.7711,14.20026 -67.9362,36.89465 -103.2914,70.68072 -16.8506,16.10278 -41.2244,38.6859 -54.1639,50.1847 -31.6756,28.14876 -38.606,41.37197 -38.6593,73.76131 -0.036,21.58616 0.9328,26.07662 9.2803,43.03282 12.6402,25.67578 33.613,42.32438 59.9764,47.61037 16.2018,3.24851 21.2839,2.89674 39.3407,-2.72321 z M 1447.4533,826.1079 c 5.8368,-2.08294 15.1138,-7.22058 20.6156,-11.41697 9.5082,-7.25232 55.0391,-64.92598 55.0391,-69.71773 0,-2.71758 -31.8987,-28.43101 -57.2853,-46.17755 -50.2215,-35.10735 -84.1527,-33.28527 -111.4444,5.98447 -15.576,22.41206 -22.2055,41.0581 -21.9455,61.72363 0.3428,27.24259 15.0252,47.45411 42.017,57.83964 17.1597,6.60248 56.7642,7.55973 73.0035,1.76451 z M 767.43555,808.58376 c 26.19901,-10.29994 47.97035,-22.98567 53.23337,-31.01809 8.86415,-13.52836 -3.57915,-30.57976 -21.93476,-30.05786 -16.44255,0.46748 -51.8662,26.62593 -60.39456,44.59813 -5.97562,12.59272 -3.89389,23.89528 4.40112,23.89528 3.2052,0 14.31789,-3.33785 24.69483,-7.41746 z m 98.03931,-49.42484 c 18.83404,-11.94419 48.93204,-41.27824 55.4687,-54.06078 2.95147,-5.77166 5.36632,-14.07979 5.36632,-18.46255 0,-30.22271 -38.12227,-26.98965 -72.02307,6.10813 -24.94203,24.3512 -32.73542,47.33913 -22.6566,66.82942 5.74086,11.10158 15.88181,10.97747 33.84465,-0.41422 z m 297.59144,-40.15029 c 35.0296,-33.40078 54.0361,-48.2214 80.0274,-62.40274 59.3122,-32.36179 127.0811,-23.48318 238.3164,31.22247 26.3045,12.93658 49.5515,23.52106 51.6601,23.52106 4.8829,0 85.6892,-46.49153 117.2941,-67.48457 30.0341,-19.94966 63.1438,-52.08385 70.601,-68.52077 7.3603,-16.22338 7.4565,-33.64652 0.2365,-42.82539 -10.4241,-13.25208 -31.9094,-20.00266 -67.9861,-21.3609 -31.4617,-1.18446 -37.3433,-0.38614 -70.6856,9.59439 l -7.0461,2.10913 8.4603,-10.19413 c 4.6531,-5.60676 24.9128,-25.24555 45.0216,-43.64175 56.934,-52.08521 90.4202,-95.2091 105.6073,-136.00204 9.4464,-25.37334 10.5317,-62.533 2.2272,-76.26099 -11.1316,-18.4015 -40.1036,-22.29982 -88.233,-11.87218 -121.0738,26.23163 -266.2856,112.13467 -377.2191,223.15173 -74.3611,74.41714 -124.19,145.01946 -136.785,193.81 -5.689,22.03797 -9.5273,86.26702 -5.1553,86.26702 1.7207,0 16.8669,-13.09966 33.6584,-29.11034 z M 756.66917,401.61374 c 23.56917,-8.31569 39.59931,-30.1135 33.68416,-45.80375 -6.28431,-16.6695 -33.34877,-37.64888 -48.48563,-37.5843 -9.77259,0.0416 -33.21253,12.09022 -47.22373,24.27378 -14.40855,12.52911 -28.54938,33.47186 -28.54938,42.28199 0,20.40637 52.69099,30.19838 90.57458,16.83228 z"
       id="path1387"
       transform="matrix(0.26458333,0,0,0.26458333,-154.8532,-107.54718)" /><path
       style="opacity:1;fill:#ffffff;stroke:#000000;stroke-width:2.83288"
       d="m 1130.0728,576.29217 c -0.1312,-26.3621 -6.8231,-49.68868 -30.225,-105.35905 -12.7913,-30.42894 -13.7366,-34.37239 -14.6562,-61.13906 -0.9671,-28.152 -0.8504,-28.76609 7.2592,-38.18377 4.5331,-5.26439 17.3045,-22.93594 28.3808,-39.2701 28.234,-41.63651 53.4481,-72.44291 91.0256,-111.21445 57.0523,-58.86531 75.5996,-68.66505 89.8361,-47.4663 5.7673,8.58783 6.4542,12.99462 6.4542,41.40685 0,35.96721 -4.5674,63.61195 -18.5176,112.07855 -18.431,64.03433 -58.8199,153.17407 -87.8104,193.80061 -6.8951,9.66267 -25.8328,31.31883 -42.0836,48.12481 l -29.547,30.55629 z"
       id="path1543"
       transform="matrix(0.26458333,0,0,0.26458333,-154.8532,-107.54718)" /><rect
       style="opacity:0.55;fill:#ffffff;stroke:#000000;stroke-width:0.264999"
       id="rect1660"
       width="85.842949"
       height="82.99543"
       x="-334.99478"
       y="-114.44548" /><path
       style="opacity:1;fill:#ffff00;stroke:#000000;stroke-width:1.41644"
       d="m 600.83853,1293.3102 c -7.60167,-3.0676 -9.76969,-12.8601 -4.26423,-19.2606 4.76826,-5.5434 11.40515,-5.285 16.70859,0.6505 5.25278,5.8789 5.07344,9.3437 -0.787,15.2041 -4.99548,4.9955 -6.57503,5.457 -11.65736,3.406 z"
       id="path2942"
       transform="matrix(0.26458333,0,0,0.26458333,-154.8532,-107.54718)" /></g></svg>
